<svg width="44" height="31" viewBox="0 0 44 31" fill="none" xmlns="http://www.w3.org/2000/svg">
<path d="M22.1434 0C22.159 3.33074e-05 22.1759 7.2166e-05 22.194 0.000117501L22.3887 0.000725361C24.6486 0.00905221 36.1026 0.0923208 39.1909 0.925005C41.084 1.43427 42.5748 2.93509 43.0808 4.84018C43.3593 5.88685 43.5535 7.27802 43.6888 8.70877L43.7151 8.99536C43.7364 9.23448 43.756 9.47413 43.7742 9.7129L43.7954 9.99892C43.9762 12.5201 43.9972 14.8793 43.9997 15.3955L44 15.4652C44 15.4709 44 15.4802 44 15.4802V15.5193C44 15.5193 44 15.5286 44 15.5343L43.9997 15.6039C43.9972 16.1396 43.9745 18.6602 43.7742 21.2867L43.7517 21.5736L43.7277 21.8607C43.5915 23.4399 43.3872 25.008 43.0808 26.1593C42.5748 28.0644 41.084 29.5655 39.1909 30.0744C35.9997 30.9352 23.8757 30.9955 22.194 30.9997L22.0645 31C22.0538 31 22.0445 31 22.0365 31L21.9836 31C21.9836 31 21.9715 31 21.9635 31L21.806 30.9997C20.9561 30.9976 17.4392 30.9811 13.7563 30.8543L13.2854 30.8375C13.2068 30.8346 13.1282 30.8316 13.0496 30.8286L12.5782 30.8099L12.1079 30.7899C9.05672 30.6556 6.14762 30.4354 4.80939 30.0744C2.91623 29.5655 1.42546 28.0644 0.919479 26.1593C0.612947 25.008 0.408592 23.4399 0.272355 21.8607L0.248328 21.5736L0.225756 21.2867C0.0326697 18.7557 0.00464111 16.3231 0.000572439 15.6701L8.62449e-05 15.5767C5.21261e-05 15.5683 2.36937e-05 15.5605 0 15.5535V15.446C2.36937e-05 15.4389 5.21261e-05 15.4312 8.62449e-05 15.4228L0.000572439 15.3293C0.00425728 14.738 0.0275946 12.687 0.175398 10.4252L0.194529 10.1414C0.197828 10.094 0.201183 10.0465 0.204595 9.99892L0.225756 9.7129C0.243972 9.47413 0.263656 9.23448 0.284929 8.99536L0.311225 8.70877C0.446591 7.27802 0.640813 5.88685 0.919479 4.84018C1.42546 2.93509 2.91623 1.43427 4.80939 0.925005C6.14762 0.564175 9.05672 0.344069 12.1079 0.209804L12.5782 0.189818L13.0496 0.171142C13.1282 0.168136 13.2068 0.165182 13.2854 0.162281L13.7563 0.145487C17.2042 0.0267791 20.5064 0.00479626 21.6113 0.000725361L21.806 0.000117501C21.824 7.2166e-05 21.8409 3.33074e-05 21.8566 0H22.1434ZM17.6001 8.85669V22.1428L29.0311 15.5001L17.6001 8.85669Z" fill="#F2F2F2"/>
</svg>
